<?xml version="1.0" encoding="utf-8"?>
<!-- Generator: Adobe Illustrator 24.1.1, SVG Export Plug-In . SVG Version: 6.00 Build 0)  -->
<svg version="1.1" id="Capa_1" xmlns="http://www.w3.org/2000/svg" xmlns:xlink="http://www.w3.org/1999/xlink" x="0px" y="0px"
	 viewBox="0 0 512 512" style="enable-background:new 0 0 512 512;" xml:space="preserve">
<style type="text/css">
	.st0{fill:#585E68;}
</style>
<circle class="st0" cx="242.9" cy="426" r="39.2"/>
<path class="st0" d="M282.1,305.7v41.8c0,7.2-5.8,13.1-13.1,13.1h-52.3c-7.2,0-13.1-5.8-13.1-13.1v-65.4c0-28.8,23.5-52.3,52.3-52.3
	s52.3-23.5,52.3-52.3s-23.5-52.3-52.3-52.3s-52.3,23.5-52.3,52.3v13.1c0,7.2-5.8,13.1-13.1,13.1h-52.3c-7.2,0-13.1-5.8-13.1-13.1
	v-13.1c0-72.1,58.7-130.7,130.7-130.7s130.7,58.7,130.7,130.7C386.7,240.3,342.5,293.5,282.1,305.7z"/>
</svg>
